<svg width="125" height="190" viewBox="0 0 125 190" fill="none" xmlns="http://www.w3.org/2000/svg">
<path d="M62.0907 187.6C28.903 187.6 2 161.286 2 128.826V60.7741C2 28.3136 28.903 2 62.0907 2C95.2784 2 122.181 28.3136 122.181 60.7741V128.826C122.181 161.286 95.2784 187.6 62.0907 187.6Z" stroke="black" stroke-width="4" stroke-miterlimit="10"/>
<path d="M78.793 107.254C79.7702 106.994 80.8648 106.849 82.1183 106.849C92.1323 106.849 92.1323 116.306 102.15 116.306C112.164 116.306 112.164 106.849 122.181 106.849" stroke="black" stroke-width="4" stroke-miterlimit="10"/>
<path d="M2 106.845C12.014 106.845 12.014 116.303 22.0279 116.303C32.0419 116.303 32.0419 106.845 42.0559 106.845C43.1471 106.845 44.1208 106.957 44.9979 107.156" stroke="black" stroke-width="4" stroke-miterlimit="10"/>
<path d="M73.3027 82.7947C75.4644 80.8559 77.9057 79.1772 82.1185 79.1772C92.1325 79.1772 92.1325 88.6346 102.15 88.6346C112.164 88.6346 112.164 79.1772 122.181 79.1772" stroke="black" stroke-width="4" stroke-miterlimit="10"/>
<path d="M2 79.1772C12.014 79.1772 12.014 88.6346 22.0279 88.6346C32.0419 88.6346 32.0419 79.1772 42.0559 79.1772C46.2755 79.1772 48.7169 80.8559 50.8785 82.798" stroke="black" stroke-width="4" stroke-miterlimit="10"/>
<path d="M76.9111 94.1056C78.3234 93.4368 79.9982 93.0112 82.1184 93.0112C92.1324 93.0112 92.1324 102.469 102.15 102.469C112.164 102.469 112.164 93.0112 122.181 93.0112" stroke="black" stroke-width="4" stroke-miterlimit="10"/>
<path d="M2 93.0112C12.014 93.0112 12.014 102.469 22.0279 102.469C32.0419 102.469 32.0419 93.0112 42.0559 93.0112C44.1795 93.0112 45.8543 93.4368 47.2666 94.1056" stroke="black" stroke-width="4" stroke-miterlimit="10"/>
<path d="M79.6462 116.481C79.6462 132.305 75.6579 147.216 68.6032 160.304H55.5781C48.5269 147.216 44.5352 132.305 44.5352 116.481C44.5352 97.2807 50.4123 79.4208 60.5023 64.5331C61.255 63.4219 62.9263 63.4219 63.6791 64.5331C73.7725 79.4208 79.6462 97.2807 79.6462 116.481Z" stroke="black" stroke-width="4" stroke-miterlimit="10"/>
<path d="M78.4795 131.187C93.3278 132.954 107.427 137.098 120.362 143.225" stroke="black" stroke-width="4" stroke-miterlimit="10"/>
<path d="M3.83691 143.296C16.7653 137.155 30.8608 132.99 45.7057 131.207" stroke="black" stroke-width="4" stroke-miterlimit="10"/>
<path d="M68.731 72.8954C72.9368 70.1327 74.9914 65.3435 82.1186 65.3435C87.8542 65.3435 90.3025 68.444 93.2307 71.0919C93.2307 71.0919 94.9607 64.3809 94.9607 60.7738C94.9607 43.0186 80.2436 28.624 62.0907 28.624C43.9378 28.624 29.2207 43.0186 29.2207 60.7738C29.2207 64.3843 29.8285 67.8529 30.9507 71.0919C30.9507 71.0919 36.3272 65.3435 42.0593 65.3435C49.1899 65.3435 51.2445 70.136 55.4469 72.8988" stroke="black" stroke-width="4" stroke-miterlimit="10"/>
<path d="M75.5097 160.304H68.6035" stroke="black" stroke-width="4" stroke-miterlimit="10" stroke-linecap="round"/>
<path d="M55.5785 160.304H48.6758" stroke="black" stroke-width="4" stroke-miterlimit="10" stroke-linecap="round"/>
<path d="M45.1738 127.375L62.1182 110.797L79.0349 127.344" stroke="black" stroke-width="4" stroke-miterlimit="10"/>
<path d="M62.1182 110.797V160.304" stroke="black" stroke-width="4" stroke-miterlimit="10"/>
</svg>
